<svg width="32" height="38" viewBox="0 0 32 38" fill="none" xmlns="http://www.w3.org/2000/svg">
<path d="M2.21094 13.1318C1.75025 14.5466 1.5 16.0565 1.5 17.625C1.5 18.2722 1.54283 18.9094 1.625 19.5342V18.5H10.6494C10.9003 15.9733 13.0323 14 15.625 14C18.3864 14 20.625 16.2386 20.625 19C20.625 21.7614 18.3864 24 15.625 24C13.2061 24 11.1889 22.2822 10.7256 20H1.69434C2.54815 25.1817 6.14871 29.4366 10.9512 31.2207C11.6684 29.3378 13.4903 28 15.625 28C18.3864 28 20.625 30.2386 20.625 33C20.625 35.7614 18.3864 38 15.625 38C12.8636 38 10.625 35.7614 10.625 33C10.625 32.8997 10.6289 32.8001 10.6348 32.7012C4.43742 30.4955 0 24.5793 0 17.625C0 15.5591 0.390608 13.5843 1.10352 11.7715L2.21094 13.1318ZM15.625 0C17.2811 0 18.7483 0.805716 19.6582 2.0459C26.7318 3.70043 32 10.0471 32 17.625C32 22.9389 29.408 27.6458 25.4209 30.5557L24.5088 29.3652C28.1387 26.7299 30.5 22.4538 30.5 17.625C30.5 11.1829 26.2984 5.72339 20.4863 3.83398C20.5758 4.20823 20.625 4.59836 20.625 5C20.625 7.76142 18.3864 10 15.625 10C12.8636 10 10.625 7.76142 10.625 5C10.625 4.70178 10.6521 4.40984 10.7021 4.12598C9.30929 4.67313 8.02077 5.42747 6.87695 6.35449L5.96387 5.16309C7.55908 3.87676 9.40727 2.89343 11.4209 2.29297C12.311 0.913485 13.8612 0 15.625 0Z" fill="#2E86F5"/>
</svg>
