<svg width="31" height="38" viewBox="0 0 31 38" fill="none" xmlns="http://www.w3.org/2000/svg">
<path d="M25.2832 7.47363L25.4717 7.45215L25.4941 7.64551C30.7086 12.035 32.57 19.5236 29.5703 26.0078C27.7936 29.8483 24.643 32.6136 20.9736 33.998C20.7257 36.2488 18.8198 38 16.5029 38C14.0177 37.9999 12.0029 35.9852 12.0029 33.5C12.0029 31.0148 14.0177 29.0001 16.5029 29C18.6189 29 20.3923 30.4608 20.873 32.4287C22.9072 31.5843 24.7447 30.2599 26.2051 28.5264L16.6738 20.6025L16.166 20.1807L16.5215 19.624L24.0098 7.86133L23.9814 7.62988L24.9014 7.51953L25.0215 7.26172C25.1103 7.33066 25.1962 7.40297 25.2832 7.47363ZM16.5029 0C18.9882 0 21.0029 2.01472 21.0029 4.5C21.0029 6.98528 18.9882 9 16.5029 9C14.5031 8.99992 12.8085 7.69517 12.2227 5.89062C9.86405 6.46072 7.66726 7.63822 5.87695 9.33203L14.5479 18.4844L15.002 18.9639L14.583 19.4746L5.75293 30.2666V30.5H5.45605L5.19043 31.0742C4.98166 30.8883 4.78021 30.6958 4.58301 30.5H4.25293V30.1641C0.0167955 25.6928 -1.30816 18.9231 1.43555 12.9922C3.52379 8.47814 7.50868 5.44684 12.0049 4.40234C12.0568 1.96223 14.0504 0.000103759 16.5029 0ZM4.84277 10.4219C4.03729 11.3688 3.34434 12.4387 2.79688 13.6221C0.388253 18.8288 1.45088 24.7516 5.02539 28.7881L13.0039 19.0361L4.84277 10.4219ZM18.1406 19.8721L27.1094 27.3281C27.5202 26.7173 27.89 26.0674 28.209 25.3779C30.8349 19.7017 29.3356 13.1743 24.9531 9.16797L18.1406 19.8721Z" fill="#2E86F5"/>
</svg>
